<svg version="1.2" xmlns="http://www.w3.org/2000/svg" viewBox="0 0 983 291" width="983" height="291"><style>.a{stroke:#b96813;stroke-width:2}.b{fill:none;stroke:#b96813;stroke-width:2}.c{fill:none;stroke:#ab5d11;stroke-width:2}.d{fill:none;stroke:#994e0e;stroke-width:2}.e{fill:none;stroke:#cf7c18;stroke-width:2}.f{fill:none;stroke:#9e520f;stroke-width:2}.g{fill:none;stroke:#cb7817;stroke-width:2}.h{fill:none;stroke:#954c0d;stroke-width:2}.i{fill:none;stroke:#b16312;stroke-width:2}.j{fill:#cb7716}.k{fill:#8b430b}.l{fill:#fff}.m{fill:#a75910}.n{fill:#e8921c}.o{fill:#853f0b}.p{fill:#7d3909}.q{fill:#b66513}.r{fill:#ad5e11}.s{fill:#d78319}</style><path class="a" d="m149.8 112.7q0.5-6.1-0.6-12.2"/><path class="b" d="m148.6 90.6q1-4.4 0.3-9-0.1 0 0-0.1 0-0.1 0-0.2 0.1-0.1 0.2-0.1 0.1-0.1 0.2-0.1 0.5-0.1 0.7-0.6"/><path class="c" d="m131.8 68.5q0.5-0.9 0.5-1.8 0.1-0.1 0-0.2 0-0.1-0.1-0.2-0.1 0-0.1-0.1-0.1 0-0.3-0.1-1-0.1-0.3-1.1c1.1-1.5 0.5-3.7-0.7-4.9q-0.1-0.1-0.1-0.2-0.1-0.1-0.1-0.2 0-0.1 0.1-0.2 0-0.1 0.1-0.2 0.8-0.5-0.1-0.5-0.5 0 0.1-0.3l1.2-0.5"/><path class="c" d="m99.5 56q0-0.8-0.8-1.1-0.1-0.1-0.2-0.1 0-0.1-0.1-0.2-0.1-0.1-0.1-0.2 0-0.1 0-0.1 0.1-4.5-1.8-8.3"/><path class="d" d="m101 90.5c-2.3 0.2-2.1 5.6-2 7.2q0 0.4 0 0.7 0 0.2 0 0.5 0 0.2-0.1 0.4 0 0.1-0.1 0.2-1.7 1.6 0.2 2.5"/><path class="e" d="m201 114.1q-1.3-3.8-1-7.8 0-0.1 0-0.3 0-0.1 0-0.2-0.1-0.1-0.2-0.1 0-0.1-0.1-0.1-1.5-0.5-0.5-1.4 0.1 0 0.2-0.1 0-0.1 0.1-0.2 0 0 0-0.1 0-0.1 0-0.1l-0.3-0.7"/><path class="f" d="m108 114.8c-5.1-0.2 2.1 6.7-4.6 8.2q-0.1 0-0.2 0.1-0.1 0-0.2 0.1 0 0.1 0 0.2-0.1 0.1 0 0.2l0.5 1.4"/><path class="g" d="m191.3 184q-2.1-2-0.4-4.2 0.1-0.1 0.1-0.1 0.1-0.1 0.1-0.2 0.1-0.1 0.1-0.3 0-0.1 0-0.2l0.3-2.9q0.1-0.1 0.1-0.2-0.1-0.1-0.1-0.2 0-0.1 0-0.2-0.1-0.1-0.1-0.1-0.7-0.7 0.3-1.4"/><path class="g" d="m203.3 168.7q-1.5-2.9-0.4-6.7 0.1-0.1 0.1-0.2 0 0 0-0.1 0-0.1 0-0.1 0 0-0.1 0l-0.2-0.1q-0.4-0.1-0.1-0.3l1.4-0.7"/><path class="g" d="m200.4 136.8l0.1-8.2q0-0.1 0-0.2-0.1-0.1-0.1-0.2-0.1-0.1-0.1-0.2-0.1-0.1-0.2-0.2-1-1.2-0.1-2.8"/><path class="h" d="m62 120.2q-0.7 0.6-1 1.4 0 0.1 0 0.2-0.1 0.1-0.1 0.2 0 0.1 0.1 0.2 0 0.2 0 0.3 0.9 2.4-0.5 4.4-0.1 0.2-0.2 0.3 0 0.1 0 0.2-0.1 0.1-0.1 0.2 0 0.1 0 0.1 0.5 1.4-0.2 2.8"/><path class="h" d="m75 160.5l-3.6 0.3q-0.1 0-0.1 0-0.1 0.1-0.1 0.1-0.1 0.1-0.1 0.1 0 0.1 0 0.1 0.6 2.1 2.6 2.5 0.2 0 0.3 0.1 0.1 0 0.2 0.1 0.1 0.2 0.1 0.3 0 0.1 0 0.2l-1.3 3.4q-0.1 0.1-0.1 0.2 0 0.1 0.1 0.1 0 0.1 0.1 0.1 0.1 0 0.2 0 1.2-0.1 1.9 0.6"/><path class="h" d="m75 176.3q0.3 0.7-0.7 0.5-0.2 0-0.1 0.1 0.1 0.1 0.2 0.2 0 0 0 0.1 0 0-0.1 0.1 0 0.1-0.1 0.1-0.1 0.1-0.2 0.1-1.2 0.5-0.2 1.2 0 0 0 0.1 0 0.1 0 0.2 0.1 0.1 0.1 0.3 0 0.1 0 0.3l0.1 6.1q0 0.2 0 0.3 0.1 0.2 0.1 0.3 0.1 0.1 0.1 0.2 0.1 0.1 0.2 0.1 1.1 0.9 0.3 2.2-0.4 0.6 0.2 0.6c0.6-0.1 0.9-1.8 2.3-2.2"/><path class="i" d="m150.5 243.8q-1.2 0.2-1.2-0.3 0-0.6-0.1-1l-1.6-4.3q-0.1-0.1-0.2-0.2 0-0.1-0.1-0.1-0.1-0.1-0.2-0.2-0.1 0-0.2 0-1-0.3-1.9 0.2-0.4 0.3-0.3-0.1 0.2-0.8 0-1.6"/><path class="j" d="m149.8 112.7q0.5-6.1-0.6-12.2l13.2-5.2q1.2-0.5 0-1-6.5-2.5-13.8-3.7 1-4.4 0.2-9 0 0 0.1-0.1 0-0.1 0-0.2 0.1-0.1 0.2-0.1 0.1-0.1 0.2-0.1 0.5-0.1 0.7-0.6 13.4 2 25.3 8.7 0.1 0.1 0.2 0.1 0.2 0.1 0.3 0.1 0.1 0 0.2-0.1 0 0 0-0.1l1.8-7.9q0-0.1 0-0.2 0-0.1-0.1-0.2-0.1-0.1-0.2-0.2-0.1-0.1-0.2-0.2-20.5-14-45.5-12 0.5-0.9 0.5-1.8 0.1-0.1 0-0.2 0-0.1-0.1-0.2-0.1 0-0.1-0.1-0.1 0-0.3-0.1-1-0.1-0.3-1.1c1.1-1.5 0.5-3.7-0.7-4.9q-0.1-0.1-0.1-0.2-0.1-0.1-0.1-0.2 0-0.1 0.1-0.2 0-0.1 0.1-0.2 0.8-0.5-0.1-0.5-0.5 0 0.1-0.3l1.2-0.5q25.8-2.1 47.8 11.3 0.1 0.1 0.2 0.1 0.1 0.1 0.2 0 0.1 0 0.2 0 0.1-0.1 0.1-0.2l2.1-9.4q0-0.1-0.1-0.2 0-0.1 0-0.2-0.1-0.1-0.2-0.2-0.1-0.1-0.2-0.2c-24.9-16.8-56.5-18-82.6-3q0-0.8-0.8-1.1-0.1-0.1-0.2-0.1 0-0.1-0.1-0.2-0.1-0.1-0.1-0.2 0-0.1 0-0.2 0.1-4.4-1.8-8.2c27.7-15.3 61.5-13.6 88.3 2.3q0.1 0 0.2 0 0.1 0 0.2 0 0.1-0.1 0.2-0.1 0-0.1 0.1-0.2l6.1-26.5q0-0.2 0.2-0.4 0.1-0.2 0.3-0.3 0.2 0 0.4 0 0.2 0 0.3 0.1l7.8 5.5q0.1 0.1 0.1 0.2 0.1 0.1 0.1 0.2 0.1 0.1 0.1 0.2 0 0.1 0 0.2l-13.4 57.3q-0.3 1.2 0.8 0.8l10.4-4q0.1-0.1 0.2-0.2 0.1 0 0.2-0.1 0.1-0.1 0.1-0.2 0.1-0.2 0.1-0.3l16.1-69.6q0-0.1 0.1-0.2 0.1-0.1 0.2-0.2 0.2 0 0.3 0 0.1 0 0.2 0l7.7 5.6q0.2 0.1 0.3 0.3 0.1 0.1 0.2 0.3 0.1 0.2 0.1 0.4 0 0.2 0 0.4l-13.7 58.7q-0.1 0.5 0.3 0.3l11.6-4.3q0.1-0.1 0.2-0.1 0-0.1 0.1-0.2 0.1-0.1 0.1-0.2 0.1-0.1 0.1-0.2l9.4-40.2q0-0.1 0.1-0.2 0-0.1 0.1-0.2 0.1 0 0.2 0 0.1 0 0.2 0 4.5 2.3 8.3 5.7 0.1 0.1 0.1 0.2 0.1 0.1 0.1 0.2 0.1 0.1 0.1 0.3 0 0.1 0 0.2l-7 29.5q-0.2 0.6 0.4 0.4l25.1-9.6q0.1 0 0.2 0 0.2 0 0.3 0 0.1 0 0.2 0.1 0.1 0 0.2 0.1l8.1 6.4q0.9 0.7-0.1 1.1z"/><path class="k" d="m96.5 46q1.9 3.8 1.8 8.3 0 0 0 0.1 0 0.1 0.1 0.2 0.1 0.1 0.1 0.2 0.1 0 0.2 0.1 0.8 0.3 0.8 1.1l-5 3.3q-0.1 0.1-0.2 0.2-0.1 0.2-0.2 0.3 0 0.2 0 0.3-0.1 0.2 0 0.3l1.8 9.4q0 0.1 0.1 0.2 0 0 0.1 0 0.1 0.1 0.2 0.1 0.1 0 0.1-0.1 16.3-10.5 35.6-12l-1.2 0.5q-0.6 0.3-0.1 0.3 0.9 0 0.1 0.5-0.1 0.1-0.1 0.2-0.1 0.1-0.1 0.2 0 0.1 0.1 0.2 0 0.1 0.1 0.2c1.2 1.2 1.8 3.4 0.7 4.9q-0.7 1 0.3 1.2 0.2 0 0.3 0 0 0.1 0.1 0.1 0.1 0.1 0.1 0.2 0.1 0.1 0 0.2 0 0.9-0.5 1.8-17.8 2.2-32.6 12.3-0.1 0-0.1 0.1-0.1 0.1-0.2 0.2 0 0.1 0 0.2 0 0.1 0 0.2l2.1 9c-2.3 0.2-2.1 5.6-2 7.2q0 0.4 0 0.7 0 0.2 0 0.5 0 0.2-0.1 0.4 0 0.1-0.1 0.2-1.7 1.6 0.2 2.5l-90-35.1q-0.1 0-0.2-0.2-0.1-0.1-0.1-0.2 0-0.2 0-0.3 0.1-0.2 0.2-0.3l6.6-5.9q0.2-0.2 0.5-0.4 0.2-0.1 0.5-0.2 0.3 0 0.6 0 0.4 0 0.6 0.1l23.6 8.9q0.8 0.2 0.6-0.6l-7.1-29.8q0-0.2 0-0.4 0-0.2 0.1-0.4 0-0.2 0.1-0.4 0.2-0.1 0.3-0.2l7.9-5.6q0.1-0.1 0.2-0.1 0.2 0 0.3 0 0.1 0.1 0.2 0.2 0 0.1 0.1 0.2l9.5 40.9q0 0.2 0.1 0.3 0.1 0.2 0.1 0.3 0.1 0.1 0.2 0.2 0.2 0 0.3 0.1l11.3 4.3q0.6 0.3 0.4-0.4l-13.8-59.3q-0.1-0.2-0.1-0.3 0.1-0.2 0.1-0.4 0.1-0.2 0.2-0.3 0.1-0.2 0.3-0.3l7.6-5.4q0.2-0.1 0.3-0.1 0.2 0 0.3 0 0.2 0 0.3 0.1 0 0.1 0.1 0.3l16 69.5q0.1 0.2 0.2 0.4 0.1 0.2 0.2 0.4 0.2 0.2 0.4 0.3 0.2 0.1 0.4 0.2l10.3 3.9q0.8 0.3 0.6-0.5l-13.5-58q0-0.2 0-0.3 0-0.2 0.1-0.4 0-0.1 0.1-0.3 0.1-0.1 0.3-0.2l7.8-5.5q0.1-0.1 0.2-0.1 0.2 0 0.3 0 0.1 0.1 0.2 0.1 0.1 0.1 0.1 0.3l6.3 27q0 0.1 0.1 0.2 0.1 0.1 0.3 0.2 0.1 0.1 0.3 0.1 0.1-0.1 0.3-0.1z"/><path class="l" d="m294.1 58.6c5.3-18.2 20.5-25.3 38.5-25.3q21.5-0.1 43 0 0.1 0 0.2 0 0.1 0 0.2 0.1 0.1 0.1 0.2 0.1 0.1 0.1 0.1 0.2l9 33.3q0 0.2 0 0.4-0.1 0.1-0.2 0.3-0.1 0.1-0.2 0.2-0.2 0.1-0.4 0.1-17.5 0-35.3 0.1c-3.9 0-9.5 0-11.5 3.7q-0.1 0.1-0.1 0.2-0.1 0.1-0.1 0.2 0 0.2 0 0.3 0 0.1 0 0.2 0.5 4.1 2.2 6.1 18.2 20 36.1 40.3c6.9 7.7 13.2 16.8 14 27.4 2.1 27.2-16 39.7-41 39.7q-22.5 0.1-44.6 0-0.2 0-0.4 0-0.2-0.1-0.3-0.2-0.2-0.2-0.3-0.4-0.1-0.1-0.2-0.3l-9-33.3q0-0.1 0.1-0.2 0-0.1 0.1-0.1 0-0.1 0.1-0.2 0.1 0 0.2 0 18.7 0 37.4 0c7.4 0 18.3-1.6 9.3-11.7q-13.8-15.7-27.5-31.5c-12.7-14.5-25.6-29-19.6-49.7z"/><path class="l" d="m509 41.8c0-0.3 0.2-0.5 0.5-0.5h34.6c0.3 0 0.6 0.2 0.6 0.5v143.9c0 0.3-0.3 0.6-0.6 0.6h-34.6c-0.3 0-0.5-0.3-0.5-0.6z"/><path class="l" d="m916 42.1c0-0.5 0.4-0.9 0.8-0.9h34.1c0.5 0 0.8 0.4 0.8 0.9v143.3c0 0.5-0.3 0.8-0.8 0.8h-34.1c-0.4 0-0.8-0.3-0.8-0.8z"/><path fill-rule="evenodd" class="l" d="m739.3 196q0-0.2-0.1-0.5-0.1-0.2-0.2-0.4-0.2-0.2-0.4-0.3-0.2-0.1-0.4-0.1c-34.8-0.9-58.3-31.9-63.2-63.7-5-32.1 7.3-60.7 43.8-60.7q27.8-0.1 55.7 0 0.1 0 0.2 0 0.1 0 0.1 0.1 0.1 0.1 0.2 0.2 0 0 0 0.1 0 60.2 0.1 120.6 0.1 14.1-2.8 25.9c-3.5 14.6-17.3 20.7-31 20.9q-24 0.4-48.4 0.1-0.2 0-0.3 0-0.1-0.1-0.3-0.2-0.1-0.1-0.2-0.2 0-0.1-0.1-0.3l-8.7-32q-0.1-0.1-0.1-0.3 0.1-0.1 0.2-0.2 0.1-0.1 0.2-0.2 0.1 0 0.3 0 22.5-0.2 45.4 0 9 0.1 10-8.8zm-15.8-91.6c-20.7 1.5-12.2 30.7-6.4 40.5q7.2 12.4 21 15.9 0.2 0 0.3 0 0.2 0 0.3-0.2 0.2-0.1 0.3-0.2 0-0.2 0-0.3v-55.3q0-0.2 0-0.3-0.1-0.1-0.2-0.2-0.1-0.1-0.2-0.2-0.1-0.1-0.3-0.1-7.4-0.2-14.8 0.4z"/><path fill-rule="evenodd" class="l" d="m456.7 153.3c-0.3 2.3 29.6 2.2 32.9 2.1q0.2 0 0.4 0.1 0.2 0.1 0.4 0.3 0.1 0.2 0.1 0.5 0.1 0.2 0 0.4l-8.3 28.5q-0.1 0.2-0.2 0.4-0.2 0.2-0.4 0.4-0.1 0.1-0.3 0.2-0.3 0-0.5 0-10.4 0.1-21.3-0.1c-39.4-0.6-66.2-36.9-64-74.4 0.8-14 4.8-26.8 17.6-34.4 13.5-7.9 35.1-7.6 50.9-6.2 14.7 1.2 28.3 7.5 31.5 23.4 5.4 26.4-17.2 46.7-38.2 58.1q-0.2 0-0.3 0.1-0.1 0.1-0.1 0.2-0.1 0.1-0.2 0.2 0 0.1 0 0.2zm-12.2-51.8c-14.7 1.9-14 18.3-10.7 28.6q0.1 0.2 0.2 0.3 0.1 0.1 0.2 0.2 0.2 0.1 0.3 0.1 0.2-0.1 0.3-0.1c7.1-3.6 26.2-15.2 24.8-24.6-1-5.9-10.4-5.1-15.1-4.5z"/><path fill-rule="evenodd" class="l" d="m558.5 108.9c3.7-34.4 28-39.1 57.4-38.4 12 0.2 22.4 1.1 31.5 7 11.2 7.2 13.4 22.6 10.3 34.8-4.7 18.1-21.5 31.5-37.1 40.1q-2.6 1.4 0.3 1.7 15.9 1.9 31.9 1.3 0.1 0 0.3 0.1 0.1 0.1 0.2 0.2 0.1 0.2 0.1 0.4 0.1 0.2 0 0.4l-8.5 28.9q0 0.2-0.1 0.4-0.1 0.1-0.3 0.2-0.1 0.1-0.3 0.2-0.1 0.1-0.3 0.1c-9.8-0.1-21.3 0.5-29.8-0.8-36.1-5.7-59.5-41.4-55.6-76.6zm58.5-7.3c-20.5-2.6-26.7 11.3-20.3 28.6q0 0.1 0.1 0.2 0.1 0.1 0.3 0.2 0.1 0.1 0.3 0 0.1 0 0.2 0 11.5-5.8 20.5-14.7c4.3-4.1 7.7-13.2-1.1-14.3z"/><path fill-rule="evenodd" class="l" d="m796 105.1c4-22.8 22.9-31.8 44.1-31.8q27.6-0.1 55.1 0 0.1 0 0.2 0 0.1 0.1 0.2 0.1 0.1 0.1 0.1 0.2 0 0.1 0 0.2v112q0 0 0 0.1 0 0.1-0.1 0.2-0.1 0.1-0.2 0.1 0 0-0.1 0.1-13.9 0-27.8 0-13.4 0-19.9-1.4c-35.6-7.8-57.8-44.6-51.6-79.8zm37.9 3.8c-3.4 5.4-2.8 13-1.3 19.4 3.1 12.9 12.9 24.6 26.5 27q0.2 0 0.4 0 0.2-0.1 0.3-0.2 0.2-0.1 0.2-0.3 0.1-0.1 0.1-0.3v-49.5q0-0.2-0.1-0.4 0-0.2-0.2-0.3-0.2-0.2-0.4-0.3-0.2 0-0.5-0.1c-5.6-0.6-21.2-0.8-25 5z"/><path class="m" d="m150 80.5q-0.2 0.5-0.7 0.6-0.1 0-0.2 0.1-0.1 0-0.2 0.1 0 0.1 0 0.2-0.1 0.1-0.1 0.1 0.8 4.6-0.2 9-17.4-2.6-34.1 4.4-0.7 0.3 0 0.5c11.4 4.3 22.4 10.5 34.8 5q1 6.1 0.5 12.2c-6.7 3-11.2 4.8-17.9 2.2q-16.4-6.6-32.9-12.9-1.9-0.9-0.2-2.5 0.1-0.1 0.1-0.2 0.1-0.2 0.1-0.4 0-0.3 0-0.5 0-0.3 0-0.7c-0.1-1.6-0.3-7 2-7.2q22.6-13.9 49-10z"/><path class="n" d="m201 114.1q-1.3-3.8-1-7.8 0-0.1 0-0.3 0-0.1 0-0.2-0.1-0.1-0.2-0.1 0-0.1-0.1-0.1-1.5-0.5-0.5-1.4 0.1 0 0.2-0.1 0-0.1 0.1-0.2 0 0 0-0.1 0-0.1 0-0.1l-0.3-0.7 61.3-23.2q0.2-0.1 0.4-0.1 0.2 0 0.3 0 0.2 0.1 0.4 0.2 0.2 0 0.3 0.2l7.6 5.9q0.9 0.7-0.2 1.1z"/><path class="o" d="m108 114.8c-5.1-0.2 2.1 6.7-4.6 8.2q-0.1 0-0.2 0.1-0.1 0-0.2 0.1 0 0.1 0 0.2-0.1 0.1 0 0.2l0.5 1.4-93.8-36.5q-0.1-0.1-0.2-0.2-0.1-0.1-0.1-0.2 0-0.2 0-0.3 0.1-0.1 0.2-0.2l7.1-6.4q0.1-0.1 0.2-0.1 0.1-0.1 0.2-0.1 0.2 0 0.3 0.1 0.2 0 0.3 0z"/><path class="n" d="m191.3 184q-2.1-2-0.4-4.2 0.1-0.1 0.1-0.1 0.1-0.1 0.1-0.2 0.1-0.1 0.1-0.3 0-0.1 0-0.2l0.3-2.9q0.1-0.1 0.1-0.2-0.1-0.1-0.1-0.2 0-0.1 0-0.2-0.1-0.1-0.1-0.1-0.7-0.7 0.3-1.4c33.7 11.2 64.9-20.3 53.7-53.7q-0.1-0.1-0.1-0.2-0.1-0.1-0.2-0.1-0.1 0-0.2 0-0.1 0-0.2 0l-7 2.7q-0.1 0-0.2 0.1-0.1 0.1-0.1 0.2-0.1 0.1-0.1 0.2 0 0.1 0.1 0.3c8.7 23.6-8.3 45.7-33 45.6q-0.1 0-0.7-0.3l-0.4-0.1q-1.5-2.9-0.4-6.7 0.1-0.1 0.1-0.2 0 0 0-0.1 0-0.1 0-0.1 0 0-0.1 0l-0.2-0.1q-0.4-0.1-0.1-0.3l1.4-0.7c17.8 1.1 33.2-16.6 25.2-34.1q0-0.1-0.1-0.1 0-0.1-0.1-0.1-0.1-0.1-0.2-0.1-0.1 0-0.2 0.1l-28.2 10.6 0.1-8.1q0-0.2 0-0.3-0.1-0.1-0.1-0.2-0.1-0.1-0.1-0.2-0.1-0.1-0.2-0.2-1-1.1-0.1-2.8l63.8-25.1q0.1 0 0.3 0 0.1-0.1 0.2 0 0.1 0 0.2 0.1 0.1 0 0.1 0.1l4.7 10.4q0.1 0 0.1 0.1 0 0.1-0.1 0.2 0 0.1-0.1 0.2 0 0-0.1 0.1l-13.8 5q-0.2 0-0.3 0.1-0.1 0.1-0.1 0.2-0.1 0.1-0.1 0.2-0.1 0.1 0 0.2 7.9 25.1-6.2 47-0.1 0.1-0.2 0.2 0 0.2 0 0.3 0 0.2 0.1 0.3 0 0.2 0.1 0.3l18.3 28.9q0.1 0.1 0.2 0.3 0 0.1 0 0.3 0 0.1-0.1 0.3 0 0.1-0.1 0.2l-5.8 8q0 0.1-0.2 0.2-0.1 0-0.2 0-0.2 0-0.3-0.1-0.1-0.1-0.2-0.2l-18.9-30.1q-0.1-0.1-0.2-0.1-0.1-0.1-0.2-0.1-0.1 0-0.1 0-0.1 0-0.2 0.1-3.5 3.3-7.7 5.9 0 0-0.1 0.1-0.1 0.1-0.1 0.2 0 0.1 0 0.2 0 0.1 0.1 0.2l25.6 40.6q0 0.1 0.1 0.2 0 0.1 0 0.2 0 0.1 0 0.2-0.1 0.1-0.1 0.2l-5.8 8q-0.1 0.1-0.2 0.2-0.2 0-0.3 0-0.2 0-0.3-0.1-0.2-0.1-0.3-0.2l-27.9-44.6q-0.1-0.1-0.3-0.3-0.1-0.1-0.3-0.2-0.2 0-0.4 0-0.2 0-0.4 0-4.8 1.8-9.9 2.2-0.2 0-0.4 0.1-0.1 0.1-0.2 0.3-0.1 0.2-0.1 0.4 0 0.2 0.1 0.4l33 52.3q0.1 0.1 0.1 0.2 0 0.1 0 0.3 0 0.1-0.1 0.2 0 0.2-0.1 0.3l-5.5 7.6q-0.1 0.1-0.3 0.2-0.2 0.1-0.4 0.1-0.2 0-0.4-0.2-0.2-0.1-0.3-0.3l-38.5-61.3q0-0.1-0.1-0.2-0.1 0-0.2-0.1-0.1-0.1-0.2-0.1-0.1-0.1-0.2-0.1z"/><path class="p" d="m62 120.2q-0.7 0.6-1 1.4 0 0.1 0 0.2-0.1 0.1-0.1 0.2 0 0.1 0.1 0.2 0 0.2 0 0.3 0.9 2.4-0.5 4.4-0.1 0.2-0.2 0.3 0 0.1 0 0.2-0.1 0.1-0.1 0.2 0 0.1 0 0.1 0.5 1.4-0.2 2.8l-10.5-3.9q-0.1-0.1-0.3-0.1-0.2 0-0.3 0.1-0.2 0.1-0.3 0.2-0.1 0.1-0.2 0.3c-6.2 18.4 7.5 34.3 26.6 33.4l-3.6 0.3q-0.1 0-0.1 0-0.1 0.1-0.1 0.1-0.1 0.1-0.1 0.1 0 0.1 0 0.1 0.6 2.1 2.6 2.5 0.2 0 0.3 0.1 0.1 0 0.2 0.1 0.1 0.2 0.1 0.3 0 0.1 0 0.2l-1.3 3.4q-0.1 0.1-0.1 0.2 0 0.1 0.1 0.1 0 0.1 0.1 0.1 0.1 0 0.2 0 1.2-0.1 1.9 0.6-13 1.5-22.4-5.5-19.8-14.6-12.4-39.5 0-0.1 0-0.2 0-0.1-0.1-0.2 0-0.1-0.1-0.2-0.1-0.1-0.2-0.1l-7-2.5q-0.1 0-0.2 0-0.1 0-0.2 0.1-0.1 0.1-0.1 0.2-0.1 0.1-0.1 0.2c-8.8 29.2 12.4 55.9 42.6 55.3q0.3 0.7-0.7 0.5-0.2 0-0.1 0.1 0.1 0.1 0.2 0.2 0 0 0 0.1 0 0-0.1 0.1 0 0.1-0.1 0.1-0.1 0.1-0.2 0.1-1.2 0.5-0.2 1.2 0 0 0 0.1 0 0.1 0 0.2 0.1 0.1 0.1 0.3 0 0.1 0 0.3l0.1 6.2q0 0.1 0 0.2 0.1 0.2 0.1 0.3 0.1 0.1 0.1 0.2 0.1 0.1 0.2 0.2 1.1 0.8 0.3 2.1-0.4 0.6 0.2 0.6c0.6-0.1 0.9-1.8 2.3-2.1l-38.1 60.6q0 0.1-0.1 0.2-0.1 0.1-0.2 0.1-0.1 0-0.2 0-0.1-0.1-0.2-0.1l-5.7-8q-0.1-0.1-0.1-0.3-0.1-0.1-0.1-0.2 0-0.1 0.1-0.3 0-0.1 0.1-0.2 0.6-1.4 2.3-4.1 15.3-24.3 30.6-48.6 0.1-0.1 0.1-0.2 0.1-0.1 0.1-0.2-0.1-0.2-0.1-0.2-0.1-0.1-0.1-0.1l-10.8-2.5q-0.2-0.1-0.3 0-0.2 0-0.3 0.1-0.2 0-0.3 0.1-0.1 0.1-0.2 0.3l-28.3 45q0 0.1-0.1 0.1-0.2 0.1-0.3 0.1-0.1 0-0.2 0-0.2-0.1-0.2-0.2l-5.7-7.9q-0.1-0.1-0.2-0.2 0-0.1 0-0.3 0-0.1 0-0.2 0-0.2 0.1-0.3l25.7-40.8q0.1-0.1 0.1-0.3 0.1-0.1 0.1-0.2-0.1-0.2-0.1-0.3-0.1-0.1-0.2-0.1l-7.2-5.5q-0.2-0.2-0.4-0.2-0.2-0.1-0.4 0-0.2 0-0.3 0.1-0.2 0.1-0.3 0.3l-19 30q-0.1 0.1-0.2 0.2-0.1 0.1-0.2 0.2-0.2 0-0.3 0-0.1-0.1-0.1-0.2l-5.9-8.2q0 0 0-0.2-0.1-0.1 0-0.2 0-0.2 0-0.3 0.1-0.2 0.2-0.3l18.8-29.8q0-0.1 0.1-0.2 0-0.1 0-0.3 0-0.1 0-0.2 0-0.1-0.1-0.2-13.6-21.4-6-45.9 0.1 0 0.1-0.1 0-0.1-0.1-0.2 0-0.1-0.1-0.1-0.1-0.1-0.2-0.1l-14.5-5.4q-0.2-0.1-0.3-0.2-0.1-0.1-0.1-0.2-0.1-0.1-0.1-0.2 0-0.2 0.1-0.3l4.3-7.2q0.2-0.2 0.4-0.4 0.2-0.2 0.5-0.3 0.3-0.1 0.6-0.1 0.3 0 0.6 0.1z"/><path class="q" d="m199.3 103l0.2 0.7q0 0 0 0.1 0 0.1 0 0.1-0.1 0.1-0.1 0.2-0.1 0.1-0.2 0.1-1 0.9 0.5 1.4 0.1 0 0.1 0.1 0.1 0 0.2 0.1 0 0.1 0 0.2 0 0.2 0 0.3-0.3 4 1 7.8-26 10.4-52.2 20.6c-7 2.7-9.8 4-17.6 1q-13.9-5.3-27.7-10.7l-0.5-1.4q-0.1-0.1 0-0.2 0-0.1 0-0.2 0.1-0.1 0.2-0.1 0.1-0.1 0.2-0.1c6.7-1.5-0.5-8.4 4.6-8.2q12.2 4.4 24.3 8.9c6.3 2.3 11.6 0.9 18.2-1.8q24.2-9.8 48.7-18.9z"/><path fill-rule="evenodd" class="r" d="m62 120.2q35.3 13 70.5 26c5.5 2.1 10.5 1 16.3-1.3q25.5-10 51.2-19.9-0.9 1.7 0.1 2.8 0.1 0.1 0.2 0.2 0 0.1 0.1 0.2 0 0.1 0.1 0.2 0 0.1 0 0.3l-0.1 8.1-16.8 6.4q-0.2 0.1-0.3 0.2-0.2 0.1-0.2 0.3-0.1 0.1-0.1 0.3 0 0.2 0.1 0.3 6 13.8 20.9 16.2l-1.4 0.7q-0.3 0.2 0.1 0.3l0.2 0.1q0.1 0 0.1 0 0 0 0 0.1 0 0.1 0 0.1 0 0.1-0.1 0.2-1.1 3.8 0.4 6.7-1 0.2-1.8 0-19.3-3.5-26.5-21.6 0-0.1-0.1-0.2-0.1-0.1-0.2-0.2-0.1 0-0.3-0.1-0.1 0-0.2 0.1l-7.2 2.8q-0.1 0-0.2 0.1-0.1 0.1-0.1 0.2-0.1 0.1-0.1 0.2 0.1 0.2 0.1 0.3 7.6 17 25 23.7-1 0.7-0.3 1.4 0 0 0.1 0.1 0 0.1 0 0.2 0 0.1 0.1 0.2 0 0.1 0 0.2l-0.4 2.9q0 0.1 0 0.2 0 0.2-0.1 0.3 0 0.1-0.1 0.2 0 0-0.1 0.1-1.7 2.2 0.3 4.2-24-7.2-33.8-30.3-0.1-0.1-0.2-0.2 0-0.1-0.1-0.2-0.1-0.1-0.2-0.1-0.1 0-0.2 0l-9.7 3.8q-0.1 0-0.1 0.1-0.1 0.1-0.1 0.2 0 0.1 0 0.2 0.1 0.2 0.2 0.3l14.8 22.1q0.1 0.1 0.1 0.2 0.1 0.1 0.1 0.2 0 0.2-0.1 0.3 0 0.1-0.1 0.2l-22.2 38.8q-0.5 0.9-1 0.1l-22.4-39q0-0.1 0-0.2-0.1-0.1-0.1-0.2 0-0.1 0.1-0.1 0-0.1 0-0.2l15.2-22.5q0.1-0.1 0.1-0.2 0-0.1 0-0.2 0-0.1-0.1-0.2-0.1-0.1-0.2-0.1l-9.7-3.5q-0.1-0.1-0.2-0.1-0.1 0-0.2 0.1-0.1 0.1-0.2 0.2 0 0.1-0.1 0.2-11.3 25.6-38.7 31.6c-1.7 0.4-3.6-0.2-4.9 1.9-1.4 0.4-1.7 2.1-2.3 2.2q-0.6 0-0.2-0.6 0.8-1.3-0.3-2.1-0.1-0.1-0.2-0.2 0-0.1-0.1-0.2 0-0.1-0.1-0.3 0-0.1 0-0.3l-0.1-6.1q0-0.2 0-0.3 0-0.2-0.1-0.3 0-0.1 0-0.2 0-0.1 0-0.1-1-0.7 0.2-1.2 0.1 0 0.2-0.1 0.1 0 0.1-0.1 0.1-0.1 0.1-0.1 0-0.1 0-0.1-0.1-0.1-0.2-0.2-0.1-0.1 0.1-0.1 1 0.2 0.7-0.5 25.7-2.8 36.4-26 0.1-0.2 0.1-0.3 0-0.1 0-0.2 0-0.2-0.1-0.2 0-0.1-0.1-0.2l-7.8-2.7q0 0-0.1 0-0.1 0-0.2 0.1-0.1 0.1-0.1 0.2-0.1 0.1-0.2 0.2-7.4 19-27.7 21.5-0.7-0.7-1.9-0.6-0.1 0-0.2 0-0.1 0-0.1-0.1-0.1 0-0.1-0.1 0-0.1 0.1-0.2l1.3-3.4q0-0.1 0-0.2 0-0.1-0.1-0.3-0.1-0.1-0.2-0.1-0.1-0.1-0.3-0.1-2-0.4-2.6-2.5 0 0 0-0.1 0 0 0.1-0.1 0 0 0.1-0.1 0 0 0.1 0l3.6-0.3q14.4-2.8 20-16.1 0-0.2 0-0.3 0-0.2 0-0.4-0.1-0.1-0.2-0.2-0.1-0.1-0.3-0.2l-34.5-12.8q0.7-1.4 0.2-2.7 0-0.1 0-0.2 0-0.1 0.1-0.2 0-0.1 0-0.2 0.1-0.1 0.2-0.3 1.4-2 0.5-4.4 0-0.1 0-0.3-0.1-0.1-0.1-0.2 0-0.1 0.1-0.2 0-0.1 0-0.2 0.3-0.8 1-1.4zm76.8 46.8l-9.1 13.5q-0.1 0.2-0.2 0.4-0.1 0.3-0.1 0.5 0 0.3 0 0.5 0.1 0.3 0.2 0.5l9.2 20.1q0.2 0.4 0.5-0.2l9.4-20.3q0.1-0.1 0.1-0.2 0.1-0.2 0.1-0.3-0.1-0.1-0.1-0.2 0-0.2-0.1-0.2l-9.4-14.2q0 0-0.1 0-0.1-0.1-0.2-0.1 0 0.1-0.1 0.1-0.1 0.1-0.1 0.1z"/><path class="m" d="m81.5 145.8q1.1 0.4 0.1 1.1c-11.3 8.5-21.6 4.3-25.1-8.9q-0.2-1 0.7-0.7z"/><path class="q" d="m196.7 147.1q-1.3-0.9 0.1-1.3l24.2-8.5q0.1-0.1 0.2 0 0 0 0.1 0.1 0 0 0.1 0.1 0 0.1 0 0.2c-2.3 14.3-13.6 16.5-24.7 9.4z"/><path class="s" d="m150.5 243.8q-1.2 0.2-1.2-0.3 0-0.6-0.1-1l-1.6-4.3q-0.1-0.1-0.2-0.2 0-0.1-0.1-0.1-0.1-0.1-0.2-0.2-0.1 0-0.2 0-1-0.3-1.9 0.2-0.4 0.3-0.3-0.1 0.2-0.8 0-1.6 12.5-20.8 25-41.7c4-6.6 7.8-11.8 15.6-7.8q2.1 1.1 3.8 3.7 14.8 23 29.7 45.9 0.1 0.2 0.1 0.3 0.1 0.2 0.1 0.3 0.1 0.1 0.1 0.2 0 0.1-0.1 0.2l-5.2 6.5q0 0.1-0.1 0.1 0 0-0.1 0-0.1 0-0.2-0.1 0 0-0.1-0.1l-32-48.3q0-0.1-0.1-0.2-0.1 0-0.2-0.1-0.1 0-0.2 0 0 0.1-0.1 0.1l-5.7 9.1q0 0-0.1 0.1 0 0.1 0 0.3 0.1 0.1 0.1 0.2 0 0.1 0.1 0.3l17.6 29.1q0.1 0.1 0.2 0.2 0 0.2 0 0.3 0 0.2 0 0.3 0 0.1-0.1 0.2l-6 8q0 0.1-0.1 0.2-0.2 0-0.3 0-0.1 0-0.2-0.1-0.1-0.1-0.2-0.2l-17-28.3q-0.1 0-0.1-0.1-0.1 0-0.2 0-0.1 0-0.1 0.1-0.1 0-0.1 0.1z"/><path class="k" d="m144.7 236.3q0.2 0.7 0 1.5-0.1 0.4 0.3 0.1 0.9-0.5 1.9-0.2 0.1 0 0.2 0 0.1 0.1 0.2 0.2 0.1 0 0.1 0.1 0.1 0.1 0.2 0.2l1.6 4.3q0.2 0.4 0.1 1 0 0.5 1.2 0.3l-11 17.9q-0.1 0.2-0.2 0.2-0.2 0.1-0.3 0.1-0.1 0-0.3-0.1-0.1-0.1-0.2-0.2l-28.6-46.4q-0.1-0.1-0.2-0.2-0.2-0.1-0.3-0.1-0.2 0-0.3 0.1-0.2 0-0.3 0.2l-16.8 27.9q-0.1 0.1-0.2 0.2-0.1 0.1-0.2 0.1-0.1 0-0.3 0-0.1-0.1-0.1-0.2l-6-8q-0.1-0.1-0.1-0.2 0-0.2 0-0.3 0-0.1 0-0.3 0.1-0.1 0.2-0.3l17.6-29.1q0.1-0.1 0.1-0.3 0.1-0.1 0.1-0.3 0-0.1 0-0.3-0.1-0.1-0.1-0.2l-5.3-8.5q0 0-0.1-0.1-0.1 0-0.2 0-0.1 0.1-0.2 0.1-0.1 0.1-0.2 0.2l-31.8 48q-0.1 0.1-0.2 0.2-0.2 0.1-0.3 0.1-0.2 0-0.3 0-0.1-0.1-0.2-0.2l-4.8-6.3q0-0.1 0-0.2-0.1-0.1-0.1-0.2 0.1-0.1 0.1-0.3 0.1-0.1 0.2-0.2l30.3-47q1.1-1.7 3.1-2.7c7.5-3.5 11.1 0.6 14.9 6.9q15.5 25.7 30.8 51.5 0.1 0.1 0.2 0.1 0 0.1 0.1 0.1 0.1 0 0.2-0.1 0 0 0.1-0.1z"/><path class="l" d="m850.4 204.3c-0.3-0.4-0.1-1.1 0.3-1.4l7.1-4.2c0.5-0.3 1.1-0.1 1.4 0.4l0.7 1.1c0.3 0.5 0.1 1.1-0.3 1.4l-7.1 4.3c-0.5 0.3-1.1 0.1-1.4-0.4z"/><path fill-rule="evenodd" class="l" d="m880.5 231.5h-0.3q0 0 0 0 0 0-0.1 0 0 0 0 0 0 0 0 0.1c-7 7.8-18.4 3.5-20.8-6.1-1.5-6.2 1.4-12.8 7.1-15.6q6.4-3.1 13.5 2.3 0.8 0.6 0.8-0.5l-0.2-10.5q0-0.1 0.1-0.2 0-0.1 0.1-0.2 0.1-0.1 0.2-0.2 0.1 0 0.2-0.1c4.3-1.1 2.6 3.1 2.6 5q0.1 14.3 0 28.6 0 0.1 0 0.3-0.1 0.1-0.1 0.2-0.1 0.1-0.2 0.2 0 0-0.1 0.1-3.9 1-2.5-3.2 0 0 0-0.1 0 0-0.1 0 0-0.1-0.1-0.1 0 0-0.1 0zm-9.2 1c1.2 0 2.4-0.3 3.6-0.8 1.1-0.4 2.1-1.2 3-2.1 0.9-1 1.6-2.1 2.1-3.3 0.5-1.3 0.7-2.6 0.8-3.9 0-1.4-0.2-2.7-0.7-4-0.4-1.2-1.1-2.4-1.9-3.3-0.9-1-1.9-1.8-3-2.3-1.1-0.6-2.3-0.8-3.6-0.9-1.2 0-2.4 0.3-3.5 0.8-1.2 0.4-2.2 1.2-3.1 2.1-0.9 1-1.6 2.1-2.1 3.3-0.5 1.3-0.7 2.6-0.7 3.9-0.1 1.4 0.1 2.7 0.6 4 0.4 1.2 1.1 2.4 2 3.3 0.8 1 1.8 1.8 2.9 2.3 1.2 0.6 2.4 0.8 3.6 0.9z"/><path  d="m572 215.8l10.3-0.1q0.1 0 0.2 0.1 0.1 0 0.3 0.1 0.1 0 0.2 0.1 0.1 0.1 0.1 0.2 0.9 1.4 0.1 3-0.1 0.1-0.1 0.1-0.1 0.1-0.2 0.1-0.2 0.1-0.3 0.1-0.2 0-0.4 0h-10.5q-0.1 0-0.2 0.1-0.1 0-0.2 0.1-0.1 0.1-0.1 0.3-0.1 0.1-0.1 0.2l0.2 13.5q0 0.2 0 0.3 0 0.1-0.1 0.2 0 0.1-0.1 0.2-0.1 0.1-0.2 0.1c-2.2 1.6-3.2-0.1-3.2-2.1q0.1-15.7 0-31.4 0-0.1 0.1-0.2 0-0.1 0.1-0.2 0.1 0 0.2-0.1 0 0 0.1 0h14.8q0.2 0 0.3 0 0.2 0.1 0.3 0.1 0.1 0.1 0.2 0.2 0 0 0.1 0.1 0.2 1.5-0.6 2.6 0 0.1-0.1 0.1-0.1 0.1-0.2 0.1-0.2 0-0.4 0-0.1 0-0.4 0l-10.5-0.2q0 0-0.1 0.1-0.1 0-0.1 0.1-0.1 0.1-0.1 0.2 0 0.1 0 0.2l0.1 11.3q0.1 0.1 0.1 0.2 0 0.1 0.1 0.1 0 0.1 0.1 0.1 0.1 0 0.2 0z"/><path class="l" d="m572 215.8l10.3-0.1q0.1 0 0.2 0.1 0.1 0 0.3 0.1 0.1 0 0.2 0.1 0.1 0.1 0.1 0.2 0.9 1.4 0.1 3-0.1 0.1-0.1 0.1-0.1 0.1-0.2 0.1-0.2 0.1-0.3 0.1-0.2 0-0.4 0h-10.5q-0.1 0-0.2 0.1-0.1 0-0.2 0.1-0.1 0.1-0.1 0.3-0.1 0.1-0.1 0.2l0.2 13.5q0 0.2 0 0.3 0 0.1-0.1 0.2 0 0.1-0.1 0.2-0.1 0.1-0.2 0.1c-2.2 1.6-3.2-0.1-3.2-2.1q0.1-15.7 0-31.4 0-0.1 0.1-0.2 0-0.1 0.1-0.2 0.1 0 0.2-0.1 0 0 0.1 0h14.8q0.2 0 0.3 0 0.2 0.1 0.3 0.1 0.1 0.1 0.2 0.2 0 0 0.1 0.1 0.2 1.5-0.6 2.6 0 0.1-0.1 0.1-0.1 0.1-0.2 0.1-0.2 0-0.4 0-0.1 0-0.4 0l-10.5-0.2q0 0-0.1 0.1-0.1 0-0.1 0.1-0.1 0.1-0.1 0.2 0 0.1 0 0.2l0.1 11.3q0.1 0.1 0.1 0.2 0 0.1 0.1 0.1 0 0.1 0.1 0.1 0.1 0 0.2 0z"/><path class="l" d="m587.8 201.3c0-0.4 0.3-0.8 0.8-0.8h1.7c0.5 0 0.8 0.4 0.8 0.8v4.3c0 0.5-0.4 0.8-0.8 0.8h-1.8c-0.4 0-0.8-0.3-0.8-0.8z"/><path class="l" d="m803.4 226.8l0.1-25.3q0-0.2 0-0.3 0-0.1 0.1-0.2 0.1-0.2 0.1-0.2 0.1-0.1 0.2-0.2 1.2-0.3 2.4 0.1 0.1 0 0.2 0.1 0.1 0.1 0.1 0.2 0.1 0.1 0.1 0.2 0 0.2 0 0.4 0.1 12.4 0 24.9c-0.1 11.3-14.1 12.5-17 1.4q-0.1-0.2-0.1-0.3 0-0.2 0-0.3 0-0.1 0-0.2 0.1-0.1 0.1-0.2 1.2-0.7 2.6-0.4 0.1 0.1 0.2 0.1 0.1 0.1 0.1 0.2 0.1 0.1 0.2 0.2 0.1 0.1 0.1 0.3c1.2 3.8 5.3 6.8 8.6 3.9q1.9-1.8 1.9-4.5z"/><path class="l" d="m889.2 201.4c0-0.5 0.4-0.9 0.9-0.9h1.5c0.5 0 0.9 0.4 0.9 0.9l0.1 4.1c0 0.5-0.4 0.9-0.9 0.9l-1.5 0.1c-0.5 0-0.9-0.4-0.9-0.9z"/><path  d="m599.8 210.5q0.1 0.1 0.2 0.2 0.1 0.1 0.2 0.1 0.2 0.1 0.3 0 0.1 0 0.2-0.1 2-1.7 4.6-2 0.1 0 0.2 0 0.1 0.1 0.2 0.1 0.1 0.1 0.2 0.2 0.1 0.1 0.1 0.2 0.3 1.5-0.2 2.8-0.1 0.1-0.1 0.2-0.1 0-0.2 0.1-0.1 0.1-0.2 0.1-0.1 0.1-0.2 0.1-5.6 1.4-5.6 7.5 0 7 0 13.9 0 0.2 0 0.3 0 0.1-0.1 0.2 0 0.1-0.1 0.2 0 0-0.1 0.1-1.3 0.7-2.6 0-0.1 0-0.1-0.1-0.1-0.1-0.1-0.2-0.1-0.1-0.1-0.3 0-0.2 0-0.4v-23.7q0-0.1 0-0.2 0-0.1 0.1-0.2 0-0.1 0.1-0.1 0.1-0.1 0.2-0.1 2-0.6 3.1 1.1z"/><path class="l" d="m599.8 210.5q0.1 0.1 0.2 0.2 0.1 0.1 0.2 0.1 0.2 0.1 0.3 0 0.1 0 0.2-0.1 2-1.7 4.6-2 0.1 0 0.2 0 0.1 0.1 0.2 0.1 0.1 0.1 0.2 0.2 0.1 0.1 0.1 0.2 0.3 1.5-0.2 2.8-0.1 0.1-0.1 0.2-0.1 0-0.2 0.1-0.1 0.1-0.2 0.1-0.1 0.1-0.2 0.1-5.6 1.4-5.6 7.5 0 7 0 13.9 0 0.2 0 0.3 0 0.1-0.1 0.2 0 0.1-0.1 0.2 0 0-0.1 0.1-1.3 0.7-2.6 0-0.1 0-0.1-0.1-0.1-0.1-0.1-0.2-0.1-0.1-0.1-0.3 0-0.2 0-0.4v-23.7q0-0.1 0-0.2 0-0.1 0.1-0.2 0-0.1 0.1-0.1 0.1-0.1 0.2-0.1 2-0.6 3.1 1.1z"/><path class="l" d="m627.4 212.6c6.5-7.8 16.1-3 16.4 6.3q0.3 7.3 0.2 14.6 0 0.2 0 0.4 0 0.2-0.1 0.3 0 0.2 0 0.2-0.1 0.1-0.1 0.2-1.3 0.9-2.8 0.1 0 0-0.1-0.1 0-0.1-0.1-0.2 0-0.1 0-0.2-0.1-0.1-0.1-0.3 0.2-9.2 0-15c-0.4-9.6-12.1-8.9-12.2 0.4q-0.1 7.2 0 14.5 0 0.1 0 0.3 0 0.1-0.1 0.2 0 0.1-0.1 0.2 0 0.1-0.1 0.2-1.2 0.7-2.4 0-0.1 0-0.1-0.1-0.1-0.1-0.2-0.2 0-0.2 0-0.3 0-0.2 0-0.3l-0.2-16q0-2.2-1.6-3.8-3.9-3.9-8.4-0.5-1.9 1.5-2 4.7v15.8q0 0.1-0.1 0.2 0 0.1 0 0.2-0.1 0.1-0.1 0.2-0.1 0-0.2 0.1-1.3 0.7-2.6 0-0.1 0-0.1-0.1-0.1-0.1-0.1-0.2-0.1-0.2-0.1-0.3 0-0.2 0-0.4 0.1-17.9 0-21.5-0.2-4.7 3.5-1.9 0.1 0 0.2 0.1 0.1 0.1 0.2 0.1 0.1 0 0.2 0 0.1 0 0.2-0.1 7.2-4.2 12.3 2.3 0 0.1 0.1 0.1 0.1 0 0.3 0 0.1 0 0.2-0.1 0.1 0 0.2-0.1z"/><path fill-rule="evenodd" class="l" d="m653 211.5q7.1-5.9 15.9 1 1.1 0.8 0.8-0.5-0.8-3.7 2.8-2.4 0.1 0 0.1 0.1 0.1 0.1 0.1 0.2 0 0.1 0 0.3 0 0.1 0 0.3l-0.1 23.5q0 0.1 0 0.2 0 0.2-0.1 0.3 0 0.1-0.1 0.1-0.1 0.1-0.1 0.1-3.2 1.4-2.8-1.9 0-0.1 0-0.2 0-0.2 0-0.3 0-0.1-0.1-0.2 0-0.1-0.1-0.2-0.1-0.1-0.3-0.2-0.1 0-0.1 0.1-0.1 0-0.2 0-0.1 0-0.1 0.1-0.1 0-0.1 0c-11.9 12.9-29-8.9-15.5-20.4zm7.6 20.9c1.2 0 2.4-0.3 3.5-0.8 1.1-0.6 2.1-1.3 2.9-2.3 0.8-1 1.4-2.1 1.9-3.4 0.4-1.2 0.6-2.6 0.6-3.9-0.1-1.4-0.3-2.7-0.8-3.9-0.5-1.3-1.2-2.4-2-3.3-0.9-0.9-1.9-1.7-3-2.2-1.1-0.5-2.3-0.7-3.5-0.7-1.2 0.1-2.4 0.4-3.5 0.9-1.1 0.5-2 1.3-2.9 2.3-0.8 1-1.4 2.1-1.9 3.4-0.4 1.2-0.6 2.5-0.6 3.9 0.1 1.3 0.3 2.7 0.8 3.9 0.5 1.2 1.2 2.4 2.1 3.3 0.8 0.9 1.8 1.7 3 2.1 1.1 0.5 2.3 0.8 3.4 0.7z"/><path class="l" d="m842.9 211.2q1.9-2 4.6-2.4 0.2 0 0.3 0 0.2 0 0.3 0 0.2 0 0.3 0.1 0.1 0.1 0.1 0.1 0.7 1.6-0.2 3.1 0 0-0.1 0.1-0.1 0.1-0.2 0.1-0.1 0.1-0.2 0.1-0.1 0.1-0.2 0.1c-8.2 2-5.6 15.1-5.6 21.6q-0.1 0.1-0.1 0.2 0 0.2-0.1 0.3 0 0.1-0.1 0.1-0.1 0.1-0.1 0.1-1.4 0.5-2.8-0.1-0.1 0-0.1-0.1-0.1-0.1-0.1-0.2 0-0.1 0-0.3-0.1-0.2-0.1-0.4-0.1-10.8 0.1-21.5c0-1.6-0.5-3.7 2.3-2.7q0.1 0 0.2 0 0.1 0.1 0.2 0.2 0.1 0.1 0.1 0.2 0.1 0.1 0.2 0.2l0.6 1q0.1 0.1 0.1 0.2 0.1 0 0.2 0 0.2 0 0.3 0 0.1-0.1 0.1-0.1z"/><path class="l" d="m897.2 225.7c-4.1-14.8 16.4-24.5 23.6-9.3q0.1 0.1 0.1 0.2 0.1 0.2 0 0.3 0 0.2-0.1 0.2 0 0.1-0.1 0.1h-2.9q0 0-0.1-0.1-0.1 0-0.2-0.1-0.1-0.1-0.2-0.3-0.1-0.1-0.2-0.3c-4.5-7.7-14.8-4.7-16.9 3.3-2.5 9.8 9.9 17.9 16.9 8.7 0.9-1.2 2.1-1.7 3.5-1.1q0.1 0.1 0.1 0.1 0.1 0.1 0.1 0.2 0.1 0.1 0.1 0.2 0 0.1-0.1 0.2c-4.9 11.5-20.4 9.3-23.6-2.3z"/><path fill-rule="evenodd" class="l" d="m946 231.5h-0.3q0 0-0.1 0 0 0-0.1 0 0 0.1-0.1 0.1 0 0 0 0.1-2.8 3.5-7.4 3.8c-16.6 0.9-18.4-23.9-2.7-26.7q5.9-1 9.9 3.6 0 0.1 0.1 0.2 0.1 0 0.2 0 0.1 0 0.2 0 0.1 0 0.2-0.1 0.7-0.7 0.4-1.8 0-0.1 0-0.3-0.1-0.1 0-0.2 0-0.2 0.1-0.3 0-0.1 0.1-0.1 1.3-1 2.4 0 0.1 0 0.2 0.1 0 0.1 0.1 0.3 0 0.1 0 0.2 0.1 0.2 0 0.3l0.1 23.3q0 0.2-0.1 0.3 0 0.1-0.1 0.3-0.1 0.1-0.2 0.1 0 0.1-0.1 0.1-3.5 1-2.2-2.8 0-0.1 0-0.2-0.1-0.1-0.2-0.1 0-0.1-0.2-0.2-0.1 0-0.2 0zm-8.8 1c1.2-0.1 2.4-0.4 3.6-0.9 1.1-0.6 2.1-1.4 2.9-2.3 0.8-1 1.5-2.2 1.9-3.4 0.5-1.3 0.7-2.6 0.6-3.9 0-1.4-0.3-2.7-0.8-4-0.5-1.2-1.2-2.3-2.1-3.2-0.9-0.9-1.9-1.7-3.1-2.2-1.1-0.4-2.3-0.7-3.5-0.6-1.3 0-2.5 0.3-3.6 0.8-1.1 0.6-2.1 1.4-2.9 2.3-0.9 1-1.5 2.2-1.9 3.4-0.5 1.3-0.7 2.6-0.6 4 0 1.3 0.3 2.6 0.8 3.9 0.5 1.2 1.2 2.3 2.1 3.2 0.9 1 1.9 1.7 3.1 2.2 1.1 0.5 2.3 0.7 3.5 0.7z"/><path class="l" d="m587.8 210.3c0-0.5 0.4-0.9 0.9-0.9h1.4c0.5 0 0.9 0.4 0.9 0.9v23.7c0 0.5-0.4 0.9-0.9 0.9h-1.5c-0.5 0-0.9-0.4-0.9-0.9z"/><path class="l" d="m829.4 232.6c-3.9 4.4-11.4 3.7-14.5-0.7-3.4-4.6-2.6-15.5-2.4-21.3q0.1-0.2 0.1-0.3 0-0.2 0.1-0.3 0-0.1 0.1-0.2 0.1-0.1 0.2-0.1 1.3-0.9 2.7 0.1 0.1 0.1 0.1 0.1 0.1 0.1 0.1 0.3 0.1 0.1 0.1 0.2 0 0.2 0 0.3c0 4.6-1.1 15.1 1.3 18.9 2.6 4.1 8.6 3.8 11.1-0.4 2.6-4.3 2.1-13 1.8-17.5q-0.3-3.4 2.8-2 0.1 0 0.2 0.1 0.1 0.1 0.2 0.2 0 0.1 0.1 0.2 0 0.2 0 0.3v23.5q0 0.1 0 0.2-0.1 0.1-0.1 0.2-0.1 0.1-0.2 0.2-0.1 0.1-0.2 0.1-1.3 0.9-2.4 0-0.1 0-0.2-0.1 0-0.1-0.1-0.2 0-0.2 0-0.3-0.1-0.2-0.1-0.3v-1.2q0-0.8-0.8 0z"/><path class="l" d="m851.5 210.4c0-0.6 0.5-1.1 1.1-1.1h0.8c0.6 0 1.1 0.5 1.1 1.1v23.5c0 0.6-0.5 1.1-1.1 1.1h-0.8c-0.6 0-1.1-0.5-1.1-1.1z"/><path class="l" d="m889.3 210.4c0-0.6 0.4-1.1 1-1.1h1.1c0.6 0 1.1 0.5 1.1 1.1v23.5c0 0.6-0.5 1.1-1.1 1.1h-1.1c-0.6 0-1-0.5-1-1.1z"/></svg>