<?xml version="1.0" encoding="UTF-8" standalone="no"?>
<!DOCTYPE svg PUBLIC "-//W3C//DTD SVG 1.1//EN" "http://www.w3.org/Graphics/SVG/1.1/DTD/svg11.dtd">
<svg xmlns="http://www.w3.org/2000/svg" version="1.1" viewBox="0 0 983 291">
<g stroke-width="2.00" fill="none" stroke-linecap="butt">
<path stroke="#b96813" vector-effect="non-scaling-stroke" d="
  M 149.75 112.71
  Q 150.35 106.60 149.25 100.54"
/>
<path stroke="#b96813" vector-effect="non-scaling-stroke" d="
  M 148.63 90.62
  Q 149.60 86.18 148.85 81.64
  A 0.51 0.44 -10.8 0 1 149.26 81.12
  Q 149.79 81.01 150.00 80.54"
/>
<path stroke="#ab5d11" vector-effect="non-scaling-stroke" d="
  M 131.79 68.50
  Q 132.27 67.64 132.35 66.67
  A 0.56 0.48 5.3 0 0 131.85 66.15
  Q 130.81 66.02 131.54 64.99
  C 132.62 63.48 132.00 61.32 130.81 60.08
  A 0.55 0.45 49.9 0 1 130.80 59.31
  Q 131.61 58.77 130.75 58.76
  Q 130.24 58.76 130.80 58.53
  L 132.00 58.04"
/>
<path stroke="#ab5d11" vector-effect="non-scaling-stroke" d="
  M 99.54 56.00
  Q 99.54 55.21 98.73 54.89
  A 0.73 0.65 12.9 0 1 98.27 54.25
  Q 98.38 49.82 96.46 46.00"
/>
<path stroke="#994e0e" vector-effect="non-scaling-stroke" d="
  M 101.04 90.50
  C 98.69 90.66 98.89 96.10 99.00 97.72
  A 2.15 0.48 84.0 0 1 98.79 99.51
  Q 97.13 101.11 99.00 101.96"
/>
<path stroke="#cf7c18" vector-effect="non-scaling-stroke" d="
  M 201.03 114.08
  Q 199.68 110.27 200.02 106.28
  A 0.73 0.48 -81.2 0 0 199.70 105.57
  Q 198.20 105.06 199.21 104.24
  A 0.65 0.30 -36.1 0 0 199.52 103.68
  L 199.25 103.04"
/>
<path stroke="#9e520f" vector-effect="non-scaling-stroke" d="
  M 108.00 114.79
  C 102.94 114.57 110.13 121.54 103.39 123.01
  A 0.51 0.43 -15.4 0 0 102.98 123.60
  L 103.50 124.96"
/>
<path stroke="#cb7817" vector-effect="non-scaling-stroke" d="
  M 191.25 183.96
  Q 189.21 182.01 190.95 179.80
  A 1.56 0.66 85.5 0 0 191.22 178.99
  L 191.55 176.07
  A 0.97 0.72 -68.5 0 0 191.36 175.37
  Q 190.67 174.65 191.75 173.96"
/>
<path stroke="#cb7817" vector-effect="non-scaling-stroke" d="
  M 203.31 168.66
  Q 201.84 165.78 202.93 161.98
  A 0.41 0.11 -74.2 0 0 202.94 161.56
  L 202.75 161.51
  Q 202.32 161.37 202.62 161.22
  L 204.00 160.54"
/>
<path stroke="#cb7817" vector-effect="non-scaling-stroke" d="
  M 200.41 136.82
  L 200.48 128.65
  A 1.45 1.18 29.2 0 0 200.14 127.79
  Q 199.15 126.65 199.96 125.00"
/>
<path stroke="#954c0d" vector-effect="non-scaling-stroke" d="
  M 62.00 120.21
  Q 61.34 120.78 61.02 121.56
  A 1.44 1.14 51.6 0 0 61.02 122.48
  Q 61.85 124.93 60.47 126.94
  A 1.07 0.54 -47.4 0 0 60.24 127.75
  Q 60.72 129.09 60.00 130.46"
/>
<path stroke="#954c0d" vector-effect="non-scaling-stroke" d="
  M 74.96 160.50
  L 71.37 160.78
  A 0.29 0.29 79.8 0 0 71.12 161.14
  Q 71.67 163.22 73.72 163.58
  A 0.67 0.49 14.0 0 1 74.30 164.28
  L 72.96 167.74
  A 0.29 0.29 -82.0 0 0 73.26 168.14
  Q 74.48 168.02 75.25 168.71"
/>
<path stroke="#954c0d" vector-effect="non-scaling-stroke" d="
  M 75.00 176.29
  Q 75.33 176.97 74.28 176.84
  Q 74.11 176.82 74.24 176.91
  Q 74.35 176.99 74.40 177.08
  A 0.51 0.23 -23.1 0 1 74.00 177.51
  Q 72.84 177.97 73.76 178.72
  A 0.96 0.14 89.5 0 1 73.89 179.56
  L 74.00 185.75
  A 1.28 0.95 -76.3 0 0 74.38 186.65
  Q 75.45 187.48 74.71 188.77
  Q 74.32 189.45 74.93 189.39
  C 75.47 189.33 75.80 187.55 77.21 187.25"
/>
<path stroke="#b16312" vector-effect="non-scaling-stroke" d="
  M 150.50 243.79
  Q 149.31 243.99 149.33 243.49
  Q 149.35 242.87 149.21 242.51
  L 147.55 238.23
  A 0.99 0.87 84.8 0 0 146.95 237.66
  Q 145.90 237.36 144.99 237.94
  Q 144.64 238.17 144.72 237.77
  Q 144.88 236.96 144.71 236.25"
/>
</g>
<path fill="#cb7716" d="
  M 149.75 112.71
  Q 150.35 106.60 149.25 100.54
  L 162.43 95.29
  Q 163.64 94.80 162.44 94.34
  Q 155.88 91.82 148.63 90.62
  Q 149.60 86.18 148.85 81.64
  A 0.51 0.44 -10.8 0 1 149.26 81.12
  Q 149.79 81.01 150.00 80.54
  Q 163.42 82.51 175.28 89.24
  A 0.60 0.32 25.7 0 0 176.04 89.21
  L 177.81 81.26
  A 0.98 0.48 29.5 0 0 177.29 80.50
  Q 156.82 66.49 131.79 68.50
  Q 132.27 67.64 132.35 66.67
  A 0.56 0.48 5.3 0 0 131.85 66.15
  Q 130.81 66.02 131.54 64.99
  C 132.62 63.48 132.00 61.32 130.81 60.08
  A 0.55 0.45 49.9 0 1 130.80 59.31
  Q 131.61 58.77 130.75 58.76
  Q 130.24 58.76 130.80 58.53
  L 132.00 58.04
  Q 157.85 55.91 179.79 69.33
  A 0.51 0.33 25.7 0 0 180.48 69.24
  L 182.55 59.76
  A 0.98 0.53 29.2 0 0 182.06 58.99
  C 157.23 42.16 125.58 41.02 99.54 56.00
  Q 99.54 55.21 98.73 54.89
  A 0.73 0.65 12.9 0 1 98.27 54.25
  Q 98.38 49.82 96.46 46.00
  C 124.19 30.71 157.98 32.40 184.85 48.26
  A 0.42 0.42 21.2 0 0 185.47 47.99
  L 191.57 21.51
  A 0.90 0.79 -67.1 0 1 192.84 20.90
  L 200.56 26.44
  A 0.78 0.74 24.8 0 1 200.87 27.22
  L 187.50 84.50
  Q 187.22 85.71 188.30 85.29
  L 198.75 81.26
  A 1.14 0.84 -89.0 0 0 199.32 80.51
  L 215.41 10.93
  A 0.56 0.49 -67.0 0 1 216.20 10.55
  L 223.92 16.09
  A 1.42 1.31 25.1 0 1 224.49 17.50
  L 210.81 76.19
  Q 210.69 76.68 211.10 76.53
  L 222.68 72.17
  A 1.03 0.77 -88.7 0 0 223.21 71.49
  L 232.60 31.27
  A 0.47 0.40 -70.7 0 1 233.20 30.92
  Q 237.68 33.24 241.49 36.65
  A 0.87 0.86 -63.0 0 1 241.76 37.50
  L 234.78 67.01
  Q 234.63 67.61 235.21 67.40
  L 260.29 57.85
  A 0.97 0.93 53.3 0 1 261.24 58.01
  L 269.34 64.40
  Q 270.25 65.12 269.18 65.54
  L 149.75 112.71
  Z"
/>
<path fill="#8b430b" d="
  M 96.46 46.00
  Q 98.38 49.82 98.27 54.25
  A 0.73 0.65 12.9 0 0 98.73 54.89
  Q 99.54 55.21 99.54 56.00
  L 94.55 59.32
  A 1.11 1.06 -22.9 0 0 94.07 60.43
  L 95.92 69.81
  A 0.34 0.33 -22.4 0 0 96.44 70.01
  Q 112.68 59.45 132.00 58.04
  L 130.80 58.53
  Q 130.24 58.76 130.75 58.76
  Q 131.61 58.77 130.80 59.31
  A 0.55 0.45 49.9 0 0 130.81 60.08
  C 132.00 61.32 132.62 63.48 131.54 64.99
  Q 130.81 66.02 131.85 66.15
  A 0.56 0.48 5.3 0 1 132.35 66.67
  Q 132.27 67.64 131.79 68.50
  Q 113.98 70.72 99.22 80.78
  A 0.75 0.72 -24.2 0 0 98.91 81.55
  L 101.04 90.50
  C 98.69 90.66 98.89 96.10 99.00 97.72
  A 2.15 0.48 84.0 0 1 98.79 99.51
  Q 97.13 101.11 99.00 101.96
  L 9.05 66.92
  A 0.62 0.58 -54.8 0 1 8.91 65.90
  L 15.46 59.96
  A 2.23 2.21 -55.7 0 1 17.74 59.52
  L 41.34 68.36
  Q 42.09 68.64 41.88 67.78
  L 34.85 37.98
  A 1.43 1.22 67.5 0 1 35.31 36.56
  L 43.23 30.98
  A 0.51 0.46 66.8 0 1 43.96 31.31
  L 53.50 72.25
  A 1.20 1.03 -88.4 0 0 54.18 73.09
  L 65.52 77.44
  Q 66.08 77.65 65.92 76.97
  L 52.07 17.73
  A 1.34 1.25 -25.0 0 1 52.61 16.39
  L 60.24 11.00
  A 0.62 0.55 -25.6 0 1 61.18 11.27
  L 77.22 80.76
  A 1.96 1.91 -86.7 0 0 78.41 82.13
  L 88.73 86.04
  Q 89.53 86.34 89.34 85.54
  L 75.80 27.49
  A 1.21 1.13 -25.0 0 1 76.29 26.28
  L 84.06 20.81
  A 0.58 0.51 -25.5 0 1 84.93 21.06
  L 91.18 48.06
  A 0.70 0.66 -21.8 0 0 92.19 48.46
  L 96.46 46.00
  Z"
/>
<path fill="#000000" d="
  M 294.10 58.61
  C 299.35 40.38 314.61 33.33 332.59 33.28
  Q 354.05 33.22 375.60 33.26
  A 0.73 0.65 -6.7 0 1 376.29 33.74
  L 385.26 67.00
  A 0.78 0.77 82.2 0 1 384.52 67.99
  Q 366.97 68.01 349.25 68.11
  C 345.33 68.14 339.66 68.08 337.66 71.79
  A 1.60 1.44 58.2 0 0 337.49 72.74
  Q 337.98 76.81 339.74 78.76
  Q 357.89 98.85 375.85 119.11
  C 382.68 126.82 388.99 135.91 389.80 146.49
  C 391.90 173.66 373.80 186.17 348.76 186.23
  Q 326.30 186.28 304.25 186.24
  A 1.34 1.28 82.0 0 1 303.00 185.25
  L 294.05 151.98
  A 0.48 0.37 -5.9 0 1 294.54 151.51
  Q 313.21 151.50 331.87 151.50
  C 339.30 151.50 350.16 149.90 341.23 139.76
  Q 327.42 124.07 313.68 108.31
  C 301.05 93.83 288.15 79.28 294.10 58.61
  Z"
/>
<rect fill="#000000" x="509.00" y="41.25" width="35.66" height="145.00" rx="0.54"/>
<rect fill="#000000" x="916.01" y="41.25" width="35.74" height="145.00" rx="0.83"/>
<path fill="#000000" d="
  M 739.25 195.99
  A 1.14 1.14 4.2 0 0 738.15 194.72
  C 703.44 193.75 679.85 162.77 674.96 131.00
  C 670.03 98.94 682.26 70.35 718.75 70.28
  Q 746.62 70.22 774.51 70.26
  A 0.48 0.47 0.0 0 1 774.99 70.73
  Q 775.04 130.90 775.14 191.25
  Q 775.16 205.42 772.29 217.24
  C 768.76 231.77 754.97 237.85 741.31 238.10
  Q 717.28 238.55 692.89 238.22
  A 0.97 0.91 82.4 0 1 692.01 237.50
  L 683.25 205.50
  A 0.64 0.59 -7.3 0 1 683.88 204.75
  Q 706.38 204.55 729.26 204.82
  Q 738.27 204.92 739.25 195.99
  Z
  M 723.45 104.36
  C 702.80 105.89 711.31 135.07 717.06 144.88
  Q 724.31 157.26 738.12 160.78
  A 0.74 0.73 -83.0 0 0 739.03 160.06
  L 739.01 104.75
  A 0.71 0.69 -89.2 0 0 738.34 104.04
  Q 730.91 103.81 723.45 104.36
  Z"
/>
<path fill="#000000" d="
  M 456.68 153.29
  C 456.38 155.55 486.34 155.52 489.57 155.40
  A 1.05 0.98 -82.0 0 1 490.51 156.75
  L 482.16 185.18
  A 1.48 1.38 -81.4 0 1 480.81 186.25
  Q 470.37 186.27 459.50 186.10
  C 420.08 185.49 393.31 149.21 395.48 111.74
  C 396.29 97.74 400.29 84.86 413.07 77.32
  C 426.55 69.37 448.24 69.75 463.99 71.08
  C 478.72 72.32 492.27 78.59 495.50 94.49
  C 500.88 120.93 478.26 141.24 457.25 152.58
  A 1.11 0.76 -16.8 0 0 456.68 153.29
  Z
  M 444.51 101.49
  C 429.75 103.42 430.48 119.80 433.80 130.14
  A 0.74 0.74 67.5 0 0 434.84 130.57
  C 441.88 127.02 461.04 115.40 459.57 106.01
  C 458.65 100.15 449.21 100.87 444.51 101.49
  Z"
/>
<path fill="#000000" d="
  M 558.45 108.89
  C 562.23 74.54 586.51 69.79 615.89 70.47
  C 627.90 70.75 638.30 71.63 647.44 77.52
  C 658.57 84.71 660.84 100.12 657.67 112.31
  C 652.96 130.43 636.18 143.77 620.58 152.36
  Q 618.00 153.78 620.93 154.12
  Q 636.79 155.97 652.75 155.43
  A 0.81 0.70 -81.2 0 1 653.40 156.47
  L 644.93 185.43
  A 1.15 1.05 -81.2 0 1 643.90 186.26
  C 634.13 186.24 622.59 186.85 614.07 185.51
  C 577.95 179.80 554.59 144.05 558.45 108.89
  Z
  M 616.98 101.59
  C 596.50 98.99 590.30 112.88 596.68 130.19
  A 0.69 0.69 66.4 0 0 597.64 130.57
  Q 609.10 124.76 618.15 115.92
  C 622.35 111.82 625.80 102.71 616.98 101.59
  Z"
/>
<path fill="#000000" d="
  M 796.00 105.06
  C 800.00 82.28 818.92 73.35 840.09 73.28
  Q 867.65 73.19 895.22 73.29
  A 0.54 0.46 0.6 0 1 895.75 73.75
  L 895.75 185.75
  A 0.50 0.49 -90.0 0 1 895.26 186.25
  Q 881.42 186.25 867.48 186.25
  Q 854.08 186.26 847.60 184.85
  C 812.02 177.14 789.82 140.30 796.00 105.06
  Z
  M 833.94 108.94
  C 830.46 114.34 831.06 121.92 832.62 128.35
  C 835.72 141.18 845.48 152.95 859.07 155.27
  A 0.91 0.80 5.4 0 0 860.13 154.50
  L 860.13 105.00
  A 1.31 1.05 3.5 0 0 858.95 103.93
  C 853.29 103.34 837.68 103.11 833.94 108.94
  Z"
/>
<path fill="#a75910" d="
  M 150.00 80.54
  Q 149.79 81.01 149.26 81.12
  A 0.51 0.44 -10.8 0 0 148.85 81.64
  Q 149.60 86.18 148.63 90.62
  Q 131.25 87.97 114.49 94.95
  Q 113.76 95.26 114.50 95.54
  C 125.92 99.81 136.90 106.01 149.25 100.54
  Q 150.35 106.60 149.75 112.71
  C 143.13 115.70 138.59 117.50 131.95 114.87
  Q 115.50 108.35 99.00 101.96
  Q 97.13 101.11 98.79 99.51
  A 2.15 0.48 84.0 0 0 99.00 97.72
  C 98.89 96.10 98.69 90.66 101.04 90.50
  Q 123.60 76.63 150.00 80.54
  Z"
/>
<path fill="#e8921c" d="
  M 201.03 114.08
  Q 199.68 110.27 200.02 106.28
  A 0.73 0.48 -81.2 0 0 199.70 105.57
  Q 198.20 105.06 199.21 104.24
  A 0.65 0.30 -36.1 0 0 199.52 103.68
  L 199.25 103.04
  L 260.53 79.78
  A 1.58 1.31 51.0 0 1 261.94 80.06
  L 269.53 85.98
  Q 270.41 86.66 269.34 87.08
  L 201.03 114.08
  Z"
/>
<path fill="#853f0b" d="
  M 108.00 114.79
  C 102.94 114.57 110.13 121.54 103.39 123.01
  A 0.51 0.43 -15.4 0 0 102.98 123.60
  L 103.50 124.96
  L 9.75 88.46
  A 0.54 0.52 34.4 0 1 9.57 87.57
  L 16.69 81.19
  A 1.16 0.69 27.7 0 1 17.71 81.14
  L 108.00 114.79
  Z"
/>
<path fill="#e8921c" d="
  M 191.25 183.96
  Q 189.21 182.01 190.95 179.80
  A 1.56 0.66 85.5 0 0 191.22 178.99
  L 191.55 176.07
  A 0.97 0.72 -68.5 0 0 191.36 175.37
  Q 190.67 174.65 191.75 173.96
  C 225.37 185.19 256.56 153.68 245.38 120.27
  A 0.51 0.48 -20.2 0 0 244.72 119.99
  L 237.69 122.67
  A 0.65 0.57 69.6 0 0 237.39 123.46
  C 246.14 147.10 229.14 169.22 204.37 169.08
  Q 204.29 169.08 203.68 168.82
  L 203.31 168.66
  Q 201.84 165.78 202.93 161.98
  A 0.41 0.11 -74.2 0 0 202.94 161.56
  L 202.75 161.51
  Q 202.32 161.37 202.62 161.22
  L 204.00 160.54
  C 221.83 161.55 237.17 143.90 229.25 126.43
  A 0.55 0.52 -22.4 0 0 228.57 126.17
  L 200.41 136.82
  L 200.48 128.65
  A 1.45 1.18 29.2 0 0 200.14 127.79
  Q 199.15 126.65 199.96 125.00
  L 263.80 99.93
  A 0.73 0.48 -22.4 0 1 264.63 100.09
  L 269.34 110.46
  A 0.47 0.44 -21.7 0 1 269.06 111.06
  L 255.27 116.06
  A 0.71 0.50 -19.7 0 0 254.78 116.76
  Q 262.70 141.91 248.55 163.76
  A 1.14 1.01 46.3 0 0 248.59 164.92
  L 266.93 193.79
  A 1.04 0.99 47.4 0 1 266.91 194.92
  L 261.14 202.90
  A 0.60 0.54 48.0 0 1 260.20 202.80
  L 241.26 172.72
  A 0.46 0.42 52.9 0 0 240.59 172.59
  Q 237.08 175.92 232.95 178.46
  A 0.56 0.53 58.3 0 0 232.79 179.22
  L 258.38 219.83
  A 0.68 0.67 46.9 0 1 258.36 220.59
  L 252.59 228.58
  A 0.67 0.63 47.1 0 1 251.52 228.51
  L 223.57 183.93
  A 1.16 1.10 63.5 0 0 222.24 183.44
  Q 217.39 185.21 212.26 185.60
  A 0.76 0.72 71.0 0 0 211.73 186.76
  L 244.69 239.06
  A 1.00 0.87 -44.4 0 1 244.61 240.10
  L 239.15 247.66
  A 0.89 0.83 47.8 0 1 237.72 247.54
  L 199.25 186.23
  A 1.30 1.16 -7.3 0 0 198.48 185.70
  L 191.25 183.96
  Z"
/>
<path fill="#7d3909" d="
  M 62.00 120.21
  Q 61.34 120.78 61.02 121.56
  A 1.44 1.14 51.6 0 0 61.02 122.48
  Q 61.85 124.93 60.47 126.94
  A 1.07 0.54 -47.4 0 0 60.24 127.75
  Q 60.72 129.09 60.00 130.46
  L 49.54 126.58
  A 0.87 0.86 20.0 0 0 48.41 127.10
  C 42.20 145.47 55.89 161.44 74.96 160.50
  L 71.37 160.78
  A 0.29 0.29 79.8 0 0 71.12 161.14
  Q 71.67 163.22 73.72 163.58
  A 0.67 0.49 14.0 0 1 74.30 164.28
  L 72.96 167.74
  A 0.29 0.29 -82.0 0 0 73.26 168.14
  Q 74.48 168.02 75.25 168.71
  Q 62.17 170.16 52.77 163.23
  Q 32.97 148.63 40.38 123.71
  A 0.60 0.60 -71.9 0 0 40.01 122.98
  L 33.00 120.50
  A 0.66 0.44 -72.2 0 0 32.36 121.00
  C 23.58 150.16 44.85 176.94 75.00 176.29
  Q 75.33 176.97 74.28 176.84
  Q 74.11 176.82 74.24 176.91
  Q 74.35 176.99 74.40 177.08
  A 0.51 0.23 -23.1 0 1 74.00 177.51
  Q 72.84 177.97 73.76 178.72
  A 0.96 0.14 89.5 0 1 73.89 179.56
  L 74.00 185.75
  A 1.28 0.95 -76.3 0 0 74.38 186.65
  Q 75.45 187.48 74.71 188.77
  Q 74.32 189.45 74.93 189.39
  C 75.47 189.33 75.80 187.55 77.21 187.25
  L 39.14 247.92
  A 0.48 0.38 -49.6 0 1 38.44 248.06
  L 32.68 240.05
  A 1.07 0.83 -53.6 0 1 32.66 239.07
  Q 33.33 237.65 35.00 235.00
  Q 50.31 210.69 65.64 186.40
  A 0.53 0.34 -63.8 0 0 65.56 185.69
  L 54.77 183.18
  A 1.11 0.95 -65.9 0 0 53.69 183.69
  L 25.43 228.68
  A 0.53 0.51 43.3 0 1 24.57 228.69
  L 18.88 220.85
  A 1.00 0.87 44.4 0 1 18.80 219.81
  L 44.51 179.00
  A 0.77 0.61 -55.8 0 0 44.44 178.06
  L 37.19 172.55
  A 0.97 0.97 34.7 0 0 35.79 172.80
  L 16.82 202.82
  A 0.61 0.43 -49.8 0 1 15.97 203.04
  L 10.15 194.84
  A 1.10 0.67 -51.8 0 1 10.28 193.80
  L 29.06 164.04
  A 0.98 0.77 -48.4 0 0 29.12 163.09
  Q 15.51 141.75 23.15 117.23
  A 0.51 0.42 19.4 0 0 22.82 116.68
  L 8.25 111.26
  A 0.61 0.56 25.4 0 1 7.91 110.42
  L 12.23 103.23
  A 1.69 1.66 25.5 0 1 14.26 102.53
  L 62.00 120.21
  Z"
/>
<path fill="#b66513" d="
  M 199.25 103.04
  L 199.52 103.68
  A 0.65 0.30 -36.1 0 1 199.21 104.24
  Q 198.20 105.06 199.70 105.57
  A 0.73 0.48 -81.2 0 1 200.02 106.28
  Q 199.68 110.27 201.03 114.08
  Q 174.99 124.46 148.81 134.71
  C 141.81 137.45 138.97 138.68 131.25 135.72
  Q 117.35 130.38 103.50 124.96
  L 102.98 123.60
  A 0.51 0.43 -15.4 0 1 103.39 123.01
  C 110.13 121.54 102.94 114.57 108.00 114.79
  Q 120.16 119.24 132.30 123.69
  C 138.56 125.97 143.90 124.62 150.52 121.94
  Q 174.74 112.11 199.25 103.04
  Z"
/>
<path fill="#ad5e11" d="
  M 62.00 120.21
  Q 97.27 133.17 132.50 146.24
  C 137.97 148.28 142.97 147.23 148.81 144.93
  Q 174.34 134.87 199.96 125.00
  Q 199.15 126.65 200.14 127.79
  A 1.45 1.18 29.2 0 1 200.48 128.65
  L 200.41 136.82
  L 183.55 143.21
  A 0.83 0.83 -22.1 0 0 183.08 144.31
  Q 189.08 158.15 204.00 160.54
  L 202.62 161.22
  Q 202.32 161.37 202.75 161.51
  L 202.94 161.56
  A 0.41 0.11 -74.2 0 1 202.93 161.98
  Q 201.84 165.78 203.31 168.66
  Q 202.32 168.89 201.50 168.74
  Q 182.22 165.19 175.02 147.10
  A 0.69 0.63 68.9 0 0 174.19 146.68
  L 167.00 149.49
  A 0.61 0.56 67.8 0 0 166.70 150.28
  Q 174.31 167.30 191.75 173.96
  Q 190.67 174.65 191.36 175.37
  A 0.97 0.72 -68.5 0 1 191.55 176.07
  L 191.22 178.99
  A 1.56 0.66 85.5 0 1 190.95 179.80
  Q 189.21 182.01 191.25 183.96
  Q 167.19 176.85 157.36 153.71
  A 0.71 0.39 67.2 0 0 156.74 153.22
  L 146.99 156.99
  A 0.61 0.39 59.8 0 0 146.96 157.78
  L 161.84 179.88
  A 0.91 0.82 -48.7 0 1 161.85 180.81
  L 139.63 219.60
  Q 139.11 220.51 138.62 219.66
  L 116.25 180.72
  A 0.75 0.61 50.3 0 1 116.24 179.99
  L 131.45 157.46
  A 0.46 0.45 -62.7 0 0 131.24 156.77
  L 121.50 153.25
  A 0.68 0.48 -67.4 0 0 120.81 153.68
  Q 109.46 179.30 82.12 185.34
  C 80.37 185.72 78.50 185.06 77.21 187.25
  C 75.80 187.55 75.47 189.33 74.93 189.39
  Q 74.32 189.45 74.71 188.77
  Q 75.45 187.48 74.38 186.65
  A 1.28 0.95 -76.3 0 1 74.00 185.75
  L 73.89 179.56
  A 0.96 0.14 89.5 0 0 73.76 178.72
  Q 72.84 177.97 74.00 177.51
  A 0.51 0.23 -23.1 0 0 74.40 177.08
  Q 74.35 176.99 74.24 176.91
  Q 74.11 176.82 74.28 176.84
  Q 75.33 176.97 75.00 176.29
  Q 100.74 173.50 111.42 150.26
  A 0.66 0.44 -66.8 0 0 111.27 149.45
  L 103.52 146.69
  A 0.73 0.36 -69.0 0 0 102.93 147.24
  Q 95.53 166.17 75.25 168.71
  Q 74.48 168.02 73.26 168.14
  A 0.29 0.29 -82.0 0 1 72.96 167.74
  L 74.30 164.28
  A 0.67 0.49 14.0 0 0 73.72 163.58
  Q 71.67 163.22 71.12 161.14
  A 0.29 0.29 79.8 0 1 71.37 160.78
  L 74.96 160.50
  Q 89.36 157.67 94.98 144.38
  A 0.81 0.80 22.0 0 0 94.52 143.31
  L 60.00 130.46
  Q 60.72 129.09 60.24 127.75
  A 1.07 0.54 -47.4 0 1 60.47 126.94
  Q 61.85 124.93 61.02 122.48
  A 1.44 1.14 51.6 0 1 61.02 121.56
  Q 61.34 120.78 62.00 120.21
  Z
  M 138.78 167.02
  L 129.73 180.47
  A 2.04 2.00 49.8 0 0 129.58 182.43
  L 138.81 202.47
  Q 139.01 202.92 139.30 202.31
  L 148.75 182.00
  A 1.04 0.91 -51.1 0 0 148.71 181.05
  L 139.29 166.95
  A 0.34 0.28 -47.1 0 0 138.78 167.02
  Z"
/>
<path fill="#a75910" d="
  M 81.48 145.80
  Q 82.60 146.19 81.62 146.93
  C 70.26 155.42 60.05 151.17 56.54 137.98
  Q 56.29 137.01 57.18 137.32
  L 81.48 145.80
  Z"
/>
<path fill="#b66513" d="
  M 196.69 147.08
  Q 195.37 146.24 196.75 145.76
  L 221.01 137.27
  A 0.36 0.28 88.6 0 1 221.36 137.70
  C 219.14 152.02 207.81 154.20 196.69 147.08
  Z"
/>
<path fill="#d78319" d="
  M 150.50 243.79
  Q 149.31 243.99 149.33 243.49
  Q 149.35 242.87 149.21 242.51
  L 147.55 238.23
  A 0.99 0.87 84.8 0 0 146.95 237.66
  Q 145.90 237.36 144.99 237.94
  Q 144.64 238.17 144.72 237.77
  Q 144.88 236.96 144.71 236.25
  Q 157.22 215.38 169.70 194.46
  C 173.65 187.86 177.50 182.70 185.31 186.73
  Q 187.39 187.80 189.09 190.43
  Q 203.92 213.39 218.77 236.33
  A 1.03 0.36 55.1 0 1 219.03 237.27
  L 213.85 243.84
  A 0.41 0.29 50.3 0 1 213.30 243.70
  L 181.32 195.37
  A 0.43 0.31 48.1 0 0 180.71 195.23
  L 175.01 204.26
  A 1.01 0.62 51.5 0 0 175.12 205.16
  L 192.72 234.26
  A 1.08 0.73 51.8 0 1 192.80 235.30
  L 186.84 243.33
  A 0.52 0.48 48.6 0 1 186.02 243.24
  L 168.97 214.93
  A 0.31 0.28 -46.6 0 0 168.47 214.97
  L 150.50 243.79
  Z"
/>
<path fill="#8b430b" d="
  M 144.71 236.25
  Q 144.88 236.96 144.72 237.77
  Q 144.64 238.17 144.99 237.94
  Q 145.90 237.36 146.95 237.66
  A 0.99 0.87 84.8 0 1 147.55 238.23
  L 149.21 242.51
  Q 149.35 242.87 149.33 243.49
  Q 149.31 243.99 150.50 243.79
  L 139.46 261.75
  A 0.55 0.52 45.4 0 1 138.55 261.72
  L 109.93 215.32
  A 0.66 0.63 45.1 0 0 108.83 215.29
  L 91.96 243.23
  A 0.50 0.46 -49.0 0 1 91.17 243.32
  L 85.22 235.29
  A 1.06 0.81 -50.4 0 1 85.26 234.23
  L 102.87 205.14
  A 1.24 0.83 -50.7 0 0 102.98 204.01
  L 97.73 195.54
  A 0.53 0.36 -47.8 0 0 96.99 195.72
  L 65.18 243.68
  A 0.67 0.57 -48.2 0 1 64.18 243.82
  L 59.44 237.53
  A 0.99 0.63 -51.2 0 1 59.55 236.56
  L 89.88 189.65
  Q 91.04 187.86 92.97 186.95
  C 100.49 183.42 104.13 187.46 107.94 193.80
  Q 123.39 219.53 138.74 245.32
  A 0.31 0.30 45.6 0 0 139.26 245.33
  L 144.71 236.25
  Z"
/>
<rect fill="#000000" x="-5.14" y="-1.71" transform="translate(855.15,202.29) rotate(-31.0)" width="10.28" height="3.42" rx="1.02"/>
<path fill="#000000" d="
  M 880.50 231.50
  L 880.25 231.50
  A 0.24 0.14 10.6 0 0 880.08 231.56
  C 873.10 239.38 861.70 235.12 859.30 225.48
  C 857.77 219.31 860.66 212.69 866.38 209.93
  Q 872.81 206.83 879.87 212.19
  Q 880.69 212.82 880.68 211.75
  L 880.54 201.25
  A 0.76 0.74 -8.0 0 1 881.11 200.52
  C 885.37 199.44 883.72 203.60 883.73 205.46
  Q 883.81 219.77 883.69 234.09
  A 0.86 0.52 85.8 0 1 883.29 234.87
  Q 879.42 235.93 880.79 231.73
  A 0.27 0.18 5.7 0 0 880.50 231.50
  Z
  M 871.2808 232.4684
  A 10.27 9.31 91.0 0 0 880.7686 222.3625
  A 10.27 9.31 91.0 0 0 871.6392 211.9316
  A 10.27 9.31 91.0 0 0 862.1514 222.0375
  A 10.27 9.31 91.0 0 0 871.2808 232.4684
  Z"
/>
<path fill="#000000" d="
  M 572.00 215.83
  L 582.25 215.74
  A 1.03 0.86 -13.2 0 1 583.11 216.17
  Q 583.98 217.61 583.18 219.20
  A 1.12 0.45 4.2 0 1 582.25 219.50
  L 571.75 219.50
  A 0.74 0.62 89.6 0 0 571.13 220.25
  L 571.32 233.75
  A 0.99 0.87 74.2 0 1 570.94 234.55
  C 568.73 236.12 567.72 234.44 567.73 232.38
  Q 567.77 216.68 567.74 200.99
  A 0.51 0.49 -0.0 0 1 568.25 200.50
  L 583.00 200.50
  A 0.91 0.49 -2.1 0 1 583.86 200.92
  Q 584.09 202.36 583.33 203.54
  A 1.25 0.30 3.1 0 1 582.25 203.74
  L 571.75 203.54
  A 0.59 0.37 89.7 0 0 571.38 204.14
  L 571.55 215.44
  A 0.44 0.40 -1.4 0 0 572.00 215.83
  Z"
/>
<rect fill="#000000" x="-1.68" y="-2.97" transform="translate(589.43,203.47) rotate(0.1)" width="3.36" height="5.94" rx="0.80"/>
<path fill="#000000" d="
  M 803.39 226.75
  L 803.47 201.50
  A 0.95 0.63 84.3 0 1 803.92 200.65
  Q 805.13 200.27 806.32 200.66
  A 1.00 0.58 -85.4 0 1 806.74 201.55
  Q 806.77 214.04 806.68 226.50
  C 806.61 237.76 792.65 239.02 789.66 227.87
  A 0.97 0.37 72.7 0 1 789.72 226.95
  Q 790.86 226.21 792.25 226.54
  A 1.11 0.78 83.1 0 1 792.90 227.26
  C 794.11 231.05 798.17 234.11 801.45 231.16
  Q 803.38 229.42 803.39 226.75
  Z"
/>
<rect fill="#000000" x="-1.63" y="-2.99" transform="translate(890.89,203.47) rotate(-0.9)" width="3.26" height="5.98" rx="0.91"/>
<path fill="#000000" d="
  M 599.77 210.50
  A 0.69 0.59 53.4 0 0 600.71 210.71
  Q 602.65 209.01 605.25 208.72
  A 0.71 0.67 78.8 0 1 605.99 209.25
  Q 606.34 210.66 605.76 212.00
  A 1.04 0.73 -0.6 0 1 605.09 212.48
  Q 599.46 213.87 599.47 220.01
  Q 599.48 226.96 599.50 233.92
  A 0.93 0.53 82.7 0 1 599.19 234.67
  Q 597.88 235.39 596.55 234.73
  A 1.13 0.32 -88.5 0 1 596.30 233.75
  L 596.26 210.00
  A 0.64 0.57 82.8 0 1 596.67 209.40
  Q 598.65 208.82 599.77 210.50
  Z"
/>
<path fill="#000000" d="
  M 627.38 212.55
  C 633.90 204.77 643.55 209.56 643.84 218.93
  Q 644.07 226.23 644.01 233.53
  A 1.25 0.30 88.4 0 1 643.79 234.57
  Q 642.50 235.52 641.04 234.71
  A 0.94 0.52 -82.3 0 1 640.74 233.94
  Q 640.86 224.71 640.65 218.85
  C 640.32 209.28 628.62 209.99 628.52 219.26
  Q 628.44 226.50 628.53 233.77
  A 1.13 0.62 81.9 0 1 628.19 234.67
  Q 627.00 235.39 625.79 234.72
  A 1.20 0.52 -85.8 0 1 625.45 233.75
  L 625.30 217.75
  Q 625.28 215.56 623.74 214.02
  Q 619.77 210.07 615.26 213.52
  Q 613.35 214.98 613.33 218.18
  L 613.27 234.00
  A 0.82 0.61 79.7 0 1 612.94 234.67
  Q 611.63 235.39 610.30 234.73
  A 1.19 0.44 -86.8 0 1 609.99 233.71
  Q 610.07 215.83 609.95 212.24
  Q 609.79 207.49 613.47 210.27
  A 0.85 0.50 43.2 0 0 614.25 210.45
  Q 621.46 206.16 626.59 212.70
  A 0.60 0.42 -46.0 0 0 627.38 212.55
  Z"
/>
<path fill="#000000" d="
  M 653.03 211.53
  Q 660.10 205.55 668.94 212.46
  Q 670.05 213.33 669.75 211.99
  Q 668.92 208.28 672.55 209.63
  A 0.95 0.21 -88.9 0 1 672.73 210.50
  L 672.65 234.00
  A 0.85 0.63 81.6 0 1 672.26 234.73
  Q 669.08 236.10 669.52 232.79
  A 1.28 1.04 -64.2 0 0 669.32 231.94
  Q 669.20 231.77 669.00 231.75
  A 0.62 0.62 -66.0 0 0 668.48 231.95
  C 656.62 244.83 639.50 223.00 653.03 211.53
  Z
  M 660.6428 232.4474
  A 10.26 9.07 88.7 0 0 669.4777 221.9842
  A 10.26 9.07 88.7 0 0 660.1772 211.9326
  A 10.26 9.07 88.7 0 0 651.3423 222.3958
  A 10.26 9.07 88.7 0 0 660.6428 232.4474
  Z"
/>
<path fill="#000000" d="
  M 842.94 211.16
  Q 844.76 209.18 847.50 208.79
  A 1.04 0.49 -11.0 0 1 848.49 209.04
  Q 849.15 210.58 848.31 212.07
  A 1.25 0.71 -1.8 0 1 847.59 212.51
  C 839.41 214.50 842.05 227.58 841.95 234.07
  A 0.87 0.51 85.9 0 1 841.57 234.83
  Q 840.16 235.31 838.80 234.74
  A 1.16 0.33 -88.8 0 1 838.53 233.71
  Q 838.40 222.91 838.61 212.16
  C 838.64 210.55 838.14 208.54 840.91 209.46
  A 1.48 0.78 70.8 0 1 841.59 210.09
  L 842.20 211.10
  A 0.47 0.45 -39.3 0 0 842.94 211.16
  Z"
/>
<path fill="#000000" d="
  M 897.20 225.68
  C 893.08 210.89 913.58 201.23 920.85 216.35
  A 0.64 0.37 71.0 0 1 920.68 217.20
  L 917.81 217.20
  A 1.13 0.23 61.0 0 1 917.15 216.43
  C 912.62 208.70 902.32 211.66 900.22 219.73
  C 897.67 229.54 910.06 237.59 917.11 228.36
  C 918.03 227.15 919.24 226.74 920.56 227.33
  A 0.53 0.51 -65.9 0 1 920.81 228.02
  C 915.87 239.52 900.45 237.33 897.20 225.68
  Z"
/>
<path fill="#000000" d="
  M 945.99 231.50
  L 945.75 231.50
  A 0.54 0.41 13.8 0 0 945.35 231.67
  Q 942.57 235.20 938.00 235.46
  C 921.35 236.41 919.57 211.58 935.26 208.82
  Q 941.15 207.78 945.17 212.43
  A 0.52 0.47 47.8 0 0 945.89 212.50
  Q 946.60 211.80 946.30 210.70
  A 0.95 0.66 67.5 0 1 946.50 209.78
  Q 947.82 208.78 948.93 209.76
  A 1.45 0.77 -80.0 0 1 949.25 210.75
  L 949.25 234.00
  A 0.92 0.65 85.1 0 1 948.75 234.85
  Q 945.28 235.80 946.56 231.99
  A 0.54 0.38 5.7 0 0 945.99 231.50
  Z
  M 937.2262 232.4560
  A 10.25 9.28 88.4 0 0 946.2164 221.9509
  A 10.25 9.28 88.4 0 0 936.6538 211.9640
  A 10.25 9.28 88.4 0 0 927.6636 222.4691
  A 10.25 9.28 88.4 0 0 937.2262 232.4560
  Z"
/>
<rect fill="#000000" x="-1.63" y="-12.78" transform="translate(589.39,222.16) rotate(0.1)" width="3.26" height="25.56" rx="0.90"/>
<path fill="#000000" d="
  M 829.43 232.63
  C 825.51 236.97 818.03 236.31 814.86 231.94
  C 811.51 227.32 812.33 216.40 812.55 210.55
  A 1.18 0.78 81.6 0 1 812.95 209.69
  Q 814.33 208.82 815.69 209.80
  A 1.23 0.64 -82.2 0 1 816.02 210.73
  C 816.00 215.34 814.88 225.82 817.29 229.57
  C 819.93 233.70 825.92 233.36 828.41 229.22
  C 831.04 224.85 830.47 216.23 830.17 211.74
  Q 829.94 208.28 833.00 209.68
  A 0.92 0.85 -78.6 0 1 833.50 210.50
  L 833.50 234.00
  A 1.09 0.64 -24.7 0 1 832.99 234.73
  Q 831.70 235.58 830.57 234.72
  A 1.35 0.60 -85.3 0 1 830.23 233.75
  L 830.20 232.57
  Q 830.17 231.80 829.43 232.63
  Z"
/>
<rect fill="#000000" x="851.50" y="209.26" width="3.00" height="25.74" rx="1.12"/>
<rect fill="#000000" x="889.26" y="209.31" width="3.24" height="25.68" rx="1.06"/>
</svg>
